# Blender 5.1.1
# www.blender.org
mtllib grass.mtl
o grassAS_01
v 0.062970 -0.012225 -0.062970
v 0.092571 0.123093 -0.092571
v 0.062970 -0.012225 -0.092571
v 0.000009 0.002340 -0.000009
v 0.025851 0.009388 -0.000009
v -0.002340 0.001871 -0.000009
v 0.114184 0.222703 -0.000009
v 0.204396 0.202969 -0.000009
v 0.115594 0.222233 -0.000009
v -0.131081 0.225522 0.095842
v -0.066711 -0.015514 0.095842
v -0.095842 0.093493 0.095842
v -0.131081 0.225522 -0.000009
v -0.038519 0.250424 -0.000009
v -0.115576 0.229751 -0.000009
v 0.092571 -0.012225 -0.062970
v 0.000009 -0.012225 -0.062970
v -0.092553 0.222703 -0.114184
v 0.092571 0.222703 -0.114184
v 0.000009 0.222703 -0.114184
v 0.000009 0.117925 0.003280
v 0.000009 0.132960 -0.000009
v 0.000009 0.106179 -0.000009
v 0.000009 0.001871 0.002340
v 0.000009 0.001401 -0.000009
v -0.095842 0.225522 0.131081
v 0.095860 0.225522 0.131081
v 0.000009 0.225522 0.131081
v 0.000009 0.009388 -0.025851
v -0.115576 0.276267 -0.000009
v 0.115594 0.276267 -0.000009
v 0.000009 0.276267 -0.000009
v 0.000009 -0.023972 -0.000009
v 0.000009 -0.015514 0.066711
v 0.000009 -0.023972 0.099601
v -0.084565 0.276267 0.078457
v 0.084583 0.276267 -0.078475
v 0.114184 0.222703 -0.092571
v 0.062970 -0.012225 -0.000009
v 0.062970 -0.012225 0.092553
v 0.114184 0.222703 0.092553
v 0.153182 -0.031959 -0.000009
v 0.115594 -0.023972 -0.000009
v -0.003280 0.117925 -0.000009
v 0.023972 0.241967 -0.000009
v 0.001418 0.000931 -0.067668
v 0.052633 0.235859 -0.067668
v 0.124521 -0.025851 0.067650
v 0.175735 0.209077 0.067650
v 0.129219 -0.026791 -0.062970
v 0.180434 0.208137 -0.062970
v -0.003280 0.002340 0.062952
v 0.047934 0.236799 0.062952
v -0.134370 -0.033369 0.065301
v -0.199210 0.207198 0.065301
v -0.066711 -0.015514 -0.000009
v 0.000949 0.002810 -0.065319
v -0.063422 0.243846 -0.065319
v -0.129671 -0.032429 -0.070017
v -0.194512 0.208607 -0.070017
v -0.003750 0.001401 0.070000
v -0.068120 0.242437 0.070000
v -0.066711 -0.015514 -0.095860
v -0.131081 0.225522 -0.095860
v -0.066711 -0.015514 0.066711
v -0.159272 -0.039947 -0.000009
v -0.224113 0.200620 -0.000009
v -0.099601 -0.023972 -0.000009
v 0.067668 -0.025851 -0.124521
v 0.067668 0.209077 -0.175735
v -0.067650 0.000931 -0.001418
v -0.067650 0.235859 -0.052633
v -0.062952 0.208137 -0.180434
v -0.062952 -0.026791 -0.129219
v 0.062970 0.236799 -0.047934
v 0.062970 0.002340 0.003280
v -0.092553 -0.012225 -0.062970
v 0.000009 0.202969 -0.204396
v 0.000009 -0.031959 -0.153182
v 0.000009 0.222233 -0.115594
v 0.000009 -0.023972 -0.115594
v 0.000009 0.241967 -0.023972
v 0.095860 -0.015514 0.066711
v -0.095842 -0.015514 0.066711
v -0.070000 -0.032429 0.129671
v -0.070000 0.208607 0.194512
v 0.070017 0.001401 0.003750
v 0.070017 0.242437 0.068120
v -0.065301 0.002810 -0.000949
v -0.065301 0.243846 0.063422
v 0.065319 -0.033369 0.134370
v 0.065319 0.207198 0.199210
v 0.000009 0.250424 0.038519
v 0.000009 0.229751 0.115576
v 0.000009 -0.039947 0.159272
v 0.000009 0.200620 0.224113
v 0.000009 0.276267 -0.115594
v 0.000009 0.276267 0.115576
v 0.084583 -0.023972 -0.078475
v -0.084565 -0.023972 0.078457
v -0.078457 0.276267 -0.084583
v -0.078457 -0.023972 -0.084583
v 0.078475 0.276267 0.084565
v 0.078475 -0.023972 0.084565
vn 0.9683 -0.2064 -0.1410
vn 0.9683 -0.2063 -0.1410
vn -0.0159 0.0159 0.9997
vn -0.0159 0.0159 -0.9997
vn 0.9633 0.2685 -0.0000
vn 0.9633 0.2684 -0.0000
vn -0.0159 0.2064 0.9783
vn -0.0159 0.2063 0.9784
vn -0.0159 -0.2063 -0.9784
vn -0.0158 -0.2063 -0.9784
vn 0.9999 0.0159 -0.0000
vn -0.0159 0.2698 -0.9628
vn -0.0158 0.2698 -0.9628
vn -0.6826 0.0159 -0.7307
vn -0.6825 0.0158 -0.7307
vn -0.9683 0.2064 -0.1410
vn -0.9683 0.2063 -0.1410
vn -0.9683 0.2064 -0.1411
vn -0.7143 0.1429 0.6851
vn -0.7143 0.1428 0.6851
vn 0.6508 -0.1429 0.7457
vn 0.6508 0.1746 0.7389
vn -0.7143 -0.1746 0.6777
vn -0.9633 -0.2685 -0.0000
vn 0.6825 0.1429 0.7167
vn 0.6825 0.1429 0.7168
vn 0.7460 -0.1429 -0.6504
vn -0.0158 0.2064 0.9783
vn -0.0159 -0.2698 0.9628
vn 0.6825 -0.1746 0.7097
vn 0.7460 0.1746 -0.6426
vn 0.6825 0.0159 0.7307
vn 0.6825 0.0158 0.7307
vn 0.7460 0.0159 -0.6657
vt 0.160784 -0.000000
vt -0.000000 -0.000000
vt -0.000000 0.576471
vt 0.149020 0.003922
vt 0.137255 -0.000000
vt 0.278431 0.054902
vt 0.501961 1.000000
vt 0.505882 1.000000
vt 1.000000 1.000000
vt 1.000000 0.450980
vt 1.000000 -0.000000
vt 0.584314 1.000000
vt 1.000000 0.576471
vt 0.839216 -0.000000
vt 0.501961 -0.000000
vt -0.000000 1.000000
vt -0.000000 0.470588
vt 0.031373 0.423529
vt -0.000000 0.533333
vt 0.152941 -0.000000
vt 1.000000 0.400000
vt 0.858824 -0.000000
vt 0.501961 0.086275
vt 0.772549 0.039216
vt 0.211765 0.027451
vt 0.070588 -0.000000
vt 0.490196 0.086275
vt 0.792157 -0.000000
vt 0.847059 -0.000000
vt 0.321569 -0.000000
vt -0.000000 0.450980
vt 1.000000 0.819608
vt 0.992157 0.819608
vt 0.603922 0.886275
vt 0.333333 0.913725
vt 0.501961 0.521569
vt 0.486275 0.474510
vt -0.000000 0.843137
s 1
usemtl grassMat
f 1/1/1 3/2/1 2/3/2
f 4/4/3 6/5/3 5/6/3
f 7/7/4 9/8/4 8/9/4
f 10/9/5 12/10/6 11/11/5
f 13/7/4 15/12/4 14/9/4
f 16/11/7 2/13/7 1/14/7
f 17/15/7 1/14/7 2/13/8
f 18/16/9 20/7/9 19/9/10
f 21/17/11 23/18/11 22/19/11
f 24/5/11 25/20/11 4/4/11
f 26/16/12 28/7/12 27/9/13
f 29/11/11 23/21/11 4/22/11
f 30/16/4 32/7/4 31/9/4
f 25/23/11 33/15/11 17/24/11
f 34/25/11 35/26/11 24/27/11
f 24/27/11 33/15/11 25/23/11
f 35/26/11 33/15/11 24/27/11
f 36/16/14 32/7/15 37/9/15
f 1/1/16 7/7/16 2/3/17
f 38/16/16 2/3/17 7/7/16
f 39/15/18 7/7/16 1/1/16
f 40/11/18 7/7/18 39/15/18
f 41/9/18 7/7/18 40/11/18
f 42/11/3 8/9/3 43/28/3
f 39/15/3 43/28/3 8/9/3
f 5/6/3 39/15/3 8/9/3
f 25/20/3 39/15/3 5/6/3
f 6/5/3 25/20/3 5/6/3
f 23/18/3 5/6/3 8/9/3
f 44/17/3 23/18/3 8/9/3
f 22/19/3 44/17/3 8/9/3
f 7/7/3 22/19/3 8/9/3
f 45/16/3 22/19/3 7/7/3
f 46/2/19 39/15/20 47/16/20
f 7/7/19 47/16/20 39/15/20
f 48/11/19 7/7/19 39/15/19
f 49/9/19 7/7/19 48/11/19
f 50/11/21 51/9/21 39/15/21
f 52/2/21 39/15/21 51/9/21
f 7/7/21 52/2/21 51/9/21
f 53/16/21 52/2/21 7/7/21
f 54/2/22 56/15/22 55/16/22
f 57/11/22 55/16/22 56/15/22
f 13/7/22 55/16/22 57/11/22
f 58/9/22 13/7/22 57/11/22
f 59/2/23 56/15/23 60/16/23
f 13/7/23 60/16/23 56/15/23
f 61/11/23 13/7/23 56/15/23
f 62/9/23 13/7/23 61/11/23
f 63/2/24 56/15/24 64/16/24
f 13/7/24 64/16/24 56/15/24
f 65/29/24 13/7/24 56/15/24
f 10/9/24 13/7/24 65/29/24
f 11/11/24 10/9/24 65/29/24
f 66/2/3 68/30/3 67/16/3
f 56/15/3 67/16/3 68/30/3
f 6/29/3 67/16/3 56/15/3
f 4/22/3 67/16/3 6/29/3
f 5/11/3 67/16/3 4/22/3
f 23/21/3 67/16/3 5/11/3
f 44/10/3 67/16/3 23/21/3
f 13/7/3 67/16/3 44/10/3
f 14/9/3 13/7/3 44/10/3
f 69/11/25 70/9/26 17/15/25
f 71/2/25 17/15/25 70/9/26
f 20/7/26 71/2/25 70/9/26
f 72/16/25 71/2/25 20/7/26
f 73/9/27 20/7/27 74/11/27
f 17/15/27 74/11/27 20/7/27
f 75/16/27 17/15/27 20/7/27
f 76/2/27 17/15/27 75/16/27
f 77/2/28 17/15/7 2/13/8
f 18/16/8 77/2/28 2/13/8
f 19/9/28 18/16/8 2/13/8
f 78/9/11 80/8/11 79/11/11
f 81/28/11 79/11/11 80/8/11
f 20/7/11 81/28/11 80/8/11
f 17/15/11 81/28/11 20/7/11
f 82/16/11 17/15/11 20/7/11
f 29/6/11 17/15/11 82/16/11
f 17/15/11 29/6/11 25/20/11
f 4/4/11 25/20/11 29/6/11
f 23/18/11 29/6/11 82/16/11
f 22/19/11 23/18/11 82/16/11
f 83/11/29 27/9/29 34/15/29
f 65/20/29 34/15/29 27/9/29
f 84/2/29 65/20/29 27/9/29
f 12/31/29 84/2/29 27/9/29
f 26/16/29 12/31/29 27/9/29
f 85/2/30 34/15/30 86/16/30
f 87/11/30 86/16/30 34/15/30
f 28/7/30 86/16/30 87/11/30
f 88/9/30 28/7/30 87/11/30
f 89/11/31 90/9/31 34/15/31
f 28/7/31 34/15/31 90/9/31
f 91/2/31 34/15/31 28/7/31
f 92/16/31 91/2/31 28/7/31
f 24/29/11 4/22/11 23/21/11
f 21/10/11 24/29/11 23/21/11
f 34/15/11 24/29/11 21/10/11
f 93/9/11 34/15/11 21/10/11
f 94/12/11 34/15/11 93/9/11
f 35/30/11 34/15/11 94/12/11
f 95/2/11 35/30/11 94/12/11
f 28/7/11 95/2/11 94/12/11
f 96/16/11 95/2/11 28/7/11
f 9/32/3 31/9/3 7/33/3
f 45/34/3 7/33/3 31/9/3
f 14/35/3 45/34/3 31/9/3
f 45/34/3 14/35/3 22/36/3
f 44/37/3 22/36/3 14/35/3
f 31/9/3 30/16/3 14/35/3
f 15/38/3 14/35/3 30/16/3
f 97/9/11 32/7/11 80/32/11
f 20/33/11 80/32/11 32/7/11
f 82/34/11 20/33/11 32/7/11
f 22/36/11 82/34/11 32/7/11
f 21/37/11 22/36/11 32/7/11
f 93/35/11 21/37/11 32/7/11
f 98/16/11 93/35/11 32/7/11
f 94/38/11 93/35/11 98/16/11
f 68/26/3 33/15/3 43/11/3
f 56/25/3 68/26/3 43/11/3
f 39/24/3 56/25/3 43/11/3
f 25/23/3 56/25/3 39/24/3
f 6/27/3 56/25/3 25/23/3
f 33/15/11 81/11/11 17/24/11
f 99/11/32 37/9/33 33/15/33
f 100/2/33 33/15/33 37/9/33
f 36/16/32 100/2/33 37/9/33
f 101/9/34 32/7/34 102/11/34
f 33/15/34 102/11/34 32/7/34
f 103/16/34 33/15/34 32/7/34
f 104/2/34 33/15/34 103/16/34
